<svg xmlns="http://www.w3.org/2000/svg" xmlns:xlink="http://www.w3.org/1999/xlink" contentStyleType="text/css" data-diagram-type="CLASS" height="1184px" preserveAspectRatio="none" style="width:1086px;height:1184px;background:#FFFFFF;" version="1.1" viewBox="0 0 1086 1184" width="1086px" zoomAndPan="magnify"><defs/><g><!--cluster ChronoLog Backend--><g class="cluster" data-entity="ChronoLog Backend" data-source-line="5" data-uid="ent0002" id="cluster_ChronoLog Backend"><rect fill="none" height="1171" rx="2.5" ry="2.5" style="stroke:#000000;stroke-width:1.5;" width="1073" x="7" y="7"/><text fill="#000000" font-family="sans-serif" font-size="14" font-weight="bold" lengthAdjust="spacing" textLength="137.6689" x="474.6655" y="24.1074">ChronoLog Backend</text></g><!--class SQLConnection--><g class="entity" data-entity="SQLConnection" data-source-line="7" data-uid="ent0003" id="entity_SQLConnection"><rect fill="#F1F1F1" height="178.3477" rx="2.5" ry="2.5" style="stroke:#181818;stroke-width:0.5;" width="255.9951" x="664" y="984"/><ellipse cx="738.3271" cy="1000" fill="#C2C2C2" rx="11" ry="11" style="stroke:#181818;stroke-width:1;"/><path d="M741.0928,995.875 Q741.249,995.6563 741.4365,995.5469 Q741.624,995.4375 741.8428,995.4375 Q742.2178,995.4375 742.4521,995.7031 Q742.6865,995.9531 742.6865,996.5625 L742.6865,998.0156 Q742.6865,998.625 742.4521,998.8906 Q742.2178,999.1563 741.8428,999.1563 Q741.499,999.1563 741.2959,998.9531 Q741.0928,998.7656 740.9834,998.25 Q740.9365,997.8906 740.749,997.7031 Q740.4209,997.3281 739.8115,997.1094 Q739.2021,996.8906 738.5771,996.8906 Q737.8115,996.8906 737.1709,997.2188 Q736.5459,997.5469 736.0459,998.2969 Q735.5615,999.0469 735.5615,1000.0781 L735.5615,1001.1719 Q735.5615,1002.4063 736.4521,1003.2344 Q737.3428,1004.0469 738.9365,1004.0469 Q739.874,1004.0469 740.5303,1003.7969 Q740.9209,1003.6406 741.3428,1003.2031 Q741.6084,1002.9375 741.749,1002.8594 Q741.9053,1002.7813 742.1084,1002.7813 Q742.4365,1002.7813 742.6865,1003.0469 Q742.9521,1003.2969 742.9521,1003.6406 Q742.9521,1003.9844 742.6084,1004.3906 Q742.1084,1004.9688 741.3115,1005.2969 Q740.2334,1005.75 738.9365,1005.75 Q737.4209,1005.75 736.2178,1005.125 Q735.2334,1004.625 734.5459,1003.5625 Q733.8584,1002.4844 733.8584,1001.2031 L733.8584,1000.0469 Q733.8584,998.7188 734.4678,997.5781 Q735.0928,996.4219 736.1865,995.8125 Q737.2803,995.1875 738.5146,995.1875 Q739.249,995.1875 739.8896,995.3594 Q740.5459,995.5156 741.0928,995.875 Z " fill="#000000"/><text fill="#000000" font-family="sans-serif" font-size="14" lengthAdjust="spacing" textLength="98.8408" x="758.8271" y="1005.7969">SQLConnection</text><line style="stroke:#181818;stroke-width:0.5;" x1="665" x2="918.9951" y1="1016" y2="1016"/><text fill="#000000" font-family="sans-serif" font-size="14" lengthAdjust="spacing" textLength="141.6201" x="670" y="1035.1074">-connection_string : str</text><line style="stroke:#181818;stroke-width:0.5;" x1="665" x2="918.9951" y1="1042.6211" y2="1042.6211"/><text fill="#000000" font-family="sans-serif" font-size="14" lengthAdjust="spacing" textLength="66.541" x="670" y="1061.7285">+__init__()</text><text fill="#000000" font-family="sans-serif" font-size="14" lengthAdjust="spacing" textLength="243.9951" x="670" y="1080.3496">+get_connection() : pyodbc.Connection</text><text fill="#000000" font-family="sans-serif" font-size="14" lengthAdjust="spacing" textLength="227.6025" x="670" y="1098.9707">+execute_query(query, params) : list</text><text fill="#000000" font-family="sans-serif" font-size="14" lengthAdjust="spacing" textLength="229.9678" x="670" y="1117.5918">+execute_non_query(query, params)</text><text fill="#000000" font-family="sans-serif" font-size="14" lengthAdjust="spacing" textLength="229.9404" x="670" y="1136.2129">+execute_sp(sp_name, params) : list</text><text fill="#000000" font-family="sans-serif" font-size="14" lengthAdjust="spacing" textLength="173.5439" x="670" y="1154.834">-_ensure_database_exists()</text></g><!--class ChronoLogFacade--><g class="entity" data-entity="ChronoLogFacade" data-source-line="17" data-uid="ent0004" id="entity_ChronoLogFacade"><rect fill="#F1F1F1" height="215.5898" rx="2.5" ry="2.5" style="stroke:#181818;stroke-width:0.5;" width="543.9111" x="520" y="689"/><ellipse cx="729.7197" cy="705" fill="#C2C2C2" rx="11" ry="11" style="stroke:#181818;stroke-width:1;"/><path d="M732.4854,700.875 Q732.6416,700.6563 732.8291,700.5469 Q733.0166,700.4375 733.2354,700.4375 Q733.6104,700.4375 733.8447,700.7031 Q734.0791,700.9531 734.0791,701.5625 L734.0791,703.0156 Q734.0791,703.625 733.8447,703.8906 Q733.6104,704.1563 733.2354,704.1563 Q732.8916,704.1563 732.6885,703.9531 Q732.4854,703.7656 732.376,703.25 Q732.3291,702.8906 732.1416,702.7031 Q731.8135,702.3281 731.2041,702.1094 Q730.5947,701.8906 729.9697,701.8906 Q729.2041,701.8906 728.5635,702.2188 Q727.9385,702.5469 727.4385,703.2969 Q726.9541,704.0469 726.9541,705.0781 L726.9541,706.1719 Q726.9541,707.4063 727.8447,708.2344 Q728.7354,709.0469 730.3291,709.0469 Q731.2666,709.0469 731.9229,708.7969 Q732.3135,708.6406 732.7354,708.2031 Q733.001,707.9375 733.1416,707.8594 Q733.2979,707.7813 733.501,707.7813 Q733.8291,707.7813 734.0791,708.0469 Q734.3447,708.2969 734.3447,708.6406 Q734.3447,708.9844 734.001,709.3906 Q733.501,709.9688 732.7041,710.2969 Q731.626,710.75 730.3291,710.75 Q728.8135,710.75 727.6104,710.125 Q726.626,709.625 725.9385,708.5625 Q725.251,707.4844 725.251,706.2031 L725.251,705.0469 Q725.251,703.7188 725.8604,702.5781 Q726.4854,701.4219 727.5791,700.8125 Q728.6729,700.1875 729.9072,700.1875 Q730.6416,700.1875 731.2822,700.3594 Q731.9385,700.5156 732.4854,700.875 Z " fill="#000000"/><text fill="#000000" font-family="sans-serif" font-size="14" lengthAdjust="spacing" textLength="115.9717" x="750.2197" y="710.7969">ChronoLogFacade</text><line style="stroke:#181818;stroke-width:0.5;" x1="521" x2="1062.9111" y1="721" y2="721"/><text fill="#000000" font-family="sans-serif" font-size="14" lengthAdjust="spacing" textLength="130.7441" x="526" y="740.1074">-db : SQLConnection</text><line style="stroke:#181818;stroke-width:0.5;" x1="521" x2="1062.9111" y1="747.6211" y2="747.6211"/><text fill="#000000" font-family="sans-serif" font-size="14" lengthAdjust="spacing" textLength="66.541" x="526" y="766.7285">+__init__()</text><text fill="#000000" font-family="sans-serif" font-size="14" lengthAdjust="spacing" textLength="142.0098" x="526" y="785.3496">+get_messages() : dict</text><text fill="#000000" font-family="sans-serif" font-size="14" lengthAdjust="spacing" textLength="267.3193" x="526" y="803.9707">+get_or_create_message_id(template) : int</text><text fill="#000000" font-family="sans-serif" font-size="14" lengthAdjust="spacing" textLength="531.9111" x="526" y="822.5918">+insert_timeline_event(event_time, event_type, message_id, message_values, value)</text><text fill="#000000" font-family="sans-serif" font-size="14" lengthAdjust="spacing" textLength="231.5127" x="526" y="841.2129">+bulk_insert_timeline_events(events)</text><text fill="#000000" font-family="sans-serif" font-size="14" lengthAdjust="spacing" textLength="335.0635" x="526" y="859.834">+get_timeline_page(page, per_page, event_type) : list</text><text fill="#000000" font-family="sans-serif" font-size="14" lengthAdjust="spacing" textLength="135.7617" x="526" y="878.4551">+get_summary() : dict</text><text fill="#000000" font-family="sans-serif" font-size="14" lengthAdjust="spacing" textLength="208.0928" x="526" y="897.0762">+get_timeseries(metric, limit) : list</text></g><!--class LogParser--><g class="entity" data-entity="LogParser" data-source-line="29" data-uid="ent0005" id="entity_LogParser"><rect fill="#F1F1F1" height="196.9688" rx="2.5" ry="2.5" style="stroke:#181818;stroke-width:0.5;" width="454.0049" x="23" y="413"/><ellipse cx="213.4561" cy="429" fill="#C2C2C2" rx="11" ry="11" style="stroke:#181818;stroke-width:1;"/><path d="M216.2217,424.875 Q216.3779,424.6563 216.5654,424.5469 Q216.7529,424.4375 216.9717,424.4375 Q217.3467,424.4375 217.5811,424.7031 Q217.8154,424.9531 217.8154,425.5625 L217.8154,427.0156 Q217.8154,427.625 217.5811,427.8906 Q217.3467,428.1563 216.9717,428.1563 Q216.6279,428.1563 216.4248,427.9531 Q216.2217,427.7656 216.1123,427.25 Q216.0654,426.8906 215.8779,426.7031 Q215.5498,426.3281 214.9404,426.1094 Q214.3311,425.8906 213.7061,425.8906 Q212.9404,425.8906 212.2998,426.2188 Q211.6748,426.5469 211.1748,427.2969 Q210.6904,428.0469 210.6904,429.0781 L210.6904,430.1719 Q210.6904,431.4063 211.5811,432.2344 Q212.4717,433.0469 214.0654,433.0469 Q215.0029,433.0469 215.6592,432.7969 Q216.0498,432.6406 216.4717,432.2031 Q216.7373,431.9375 216.8779,431.8594 Q217.0342,431.7813 217.2373,431.7813 Q217.5654,431.7813 217.8154,432.0469 Q218.0811,432.2969 218.0811,432.6406 Q218.0811,432.9844 217.7373,433.3906 Q217.2373,433.9688 216.4404,434.2969 Q215.3623,434.75 214.0654,434.75 Q212.5498,434.75 211.3467,434.125 Q210.3623,433.625 209.6748,432.5625 Q208.9873,431.4844 208.9873,430.2031 L208.9873,429.0469 Q208.9873,427.7188 209.5967,426.5781 Q210.2217,425.4219 211.3154,424.8125 Q212.4092,424.1875 213.6436,424.1875 Q214.3779,424.1875 215.0186,424.3594 Q215.6748,424.5156 216.2217,424.875 Z " fill="#000000"/><text fill="#000000" font-family="sans-serif" font-size="14" lengthAdjust="spacing" textLength="64.5928" x="233.9561" y="434.7969">LogParser</text><line style="stroke:#181818;stroke-width:0.5;" x1="24" x2="476.0049" y1="445" y2="445"/><text fill="#000000" font-family="sans-serif" font-size="14" lengthAdjust="spacing" textLength="100.3721" x="29" y="464.1074">-var_regex : dict</text><text fill="#000000" font-family="sans-serif" font-size="14" lengthAdjust="spacing" textLength="129.1719" x="29" y="482.7285">-key_val_re : Pattern</text><line style="stroke:#181818;stroke-width:0.5;" x1="24" x2="476.0049" y1="490.2422" y2="490.2422"/><text fill="#000000" font-family="sans-serif" font-size="14" lengthAdjust="spacing" textLength="128.7959" x="29" y="509.3496">+__init__(var_regex)</text><text fill="#000000" font-family="sans-serif" font-size="14" lengthAdjust="spacing" textLength="159.9199" x="29" y="527.9707">+parse_lines(lines) : tuple</text><text fill="#000000" font-family="sans-serif" font-size="14" lengthAdjust="spacing" textLength="180.8857" x="29" y="546.5918">+extract_timestamp(line) : str</text><text fill="#000000" font-family="sans-serif" font-size="14" lengthAdjust="spacing" textLength="356.3574" x="29" y="565.2129">-parse_errors_warnings(line, timestamp, events, timeline)</text><text fill="#000000" font-family="sans-serif" font-size="14" lengthAdjust="spacing" textLength="312.0127" x="29" y="583.834">-parse_variables(line, timestamp, events, timeline)</text><text fill="#000000" font-family="sans-serif" font-size="14" lengthAdjust="spacing" textLength="442.0049" x="29" y="602.4551">-_add_event(key, line, event_name, timestamp, events, timeline, value)</text></g><!--class FileChunkReader--><g class="entity" data-entity="FileChunkReader" data-source-line="40" data-uid="ent0006" id="entity_FileChunkReader"><rect fill="#F1F1F1" height="196.9688" rx="2.5" ry="2.5" style="stroke:#181818;stroke-width:0.5;" width="320.5674" x="512.5" y="413"/><ellipse cx="614.0615" cy="429" fill="#C2C2C2" rx="11" ry="11" style="stroke:#181818;stroke-width:1;"/><path d="M616.8271,424.875 Q616.9834,424.6563 617.1709,424.5469 Q617.3584,424.4375 617.5771,424.4375 Q617.9521,424.4375 618.1865,424.7031 Q618.4209,424.9531 618.4209,425.5625 L618.4209,427.0156 Q618.4209,427.625 618.1865,427.8906 Q617.9521,428.1563 617.5771,428.1563 Q617.2334,428.1563 617.0303,427.9531 Q616.8271,427.7656 616.7178,427.25 Q616.6709,426.8906 616.4834,426.7031 Q616.1553,426.3281 615.5459,426.1094 Q614.9365,425.8906 614.3115,425.8906 Q613.5459,425.8906 612.9053,426.2188 Q612.2803,426.5469 611.7803,427.2969 Q611.2959,428.0469 611.2959,429.0781 L611.2959,430.1719 Q611.2959,431.4063 612.1865,432.2344 Q613.0771,433.0469 614.6709,433.0469 Q615.6084,433.0469 616.2646,432.7969 Q616.6553,432.6406 617.0771,432.2031 Q617.3428,431.9375 617.4834,431.8594 Q617.6396,431.7813 617.8428,431.7813 Q618.1709,431.7813 618.4209,432.0469 Q618.6865,432.2969 618.6865,432.6406 Q618.6865,432.9844 618.3428,433.3906 Q617.8428,433.9688 617.0459,434.2969 Q615.9678,434.75 614.6709,434.75 Q613.1553,434.75 611.9521,434.125 Q610.9678,433.625 610.2803,432.5625 Q609.5928,431.4844 609.5928,430.2031 L609.5928,429.0469 Q609.5928,427.7188 610.2021,426.5781 Q610.8271,425.4219 611.9209,424.8125 Q613.0146,424.1875 614.249,424.1875 Q614.9834,424.1875 615.624,424.3594 Q616.2803,424.5156 616.8271,424.875 Z " fill="#000000"/><text fill="#000000" font-family="sans-serif" font-size="14" lengthAdjust="spacing" textLength="108.9443" x="634.5615" y="434.7969">FileChunkReader</text><line style="stroke:#181818;stroke-width:0.5;" x1="513.5" x2="832.0674" y1="445" y2="445"/><text fill="#000000" font-family="sans-serif" font-size="14" lengthAdjust="spacing" textLength="98.0615" x="518.5" y="464.1074">-file_path : Path</text><text fill="#000000" font-family="sans-serif" font-size="14" lengthAdjust="spacing" textLength="101.1582" x="518.5" y="482.7285">-chunk_size : int</text><text fill="#000000" font-family="sans-serif" font-size="14" lengthAdjust="spacing" textLength="117.5029" x="518.5" y="501.3496">-poll_interval : float</text><text fill="#000000" font-family="sans-serif" font-size="14" lengthAdjust="spacing" textLength="120.6406" x="518.5" y="519.9707">-eof_reached : bool</text><text fill="#000000" font-family="sans-serif" font-size="14" lengthAdjust="spacing" textLength="63.8066" x="518.5" y="538.5918">-live : bool</text><line style="stroke:#181818;stroke-width:0.5;" x1="513.5" x2="832.0674" y1="546.1055" y2="546.1055"/><text fill="#000000" font-family="sans-serif" font-size="14" lengthAdjust="spacing" textLength="308.5674" x="518.5" y="565.2129">+__init__(file_path, chunk_size, poll_interval, live)</text><text fill="#000000" font-family="sans-serif" font-size="14" lengthAdjust="spacing" textLength="68.0928" x="518.5" y="583.834">+__iter__()</text><text fill="#000000" font-family="sans-serif" font-size="14" lengthAdjust="spacing" textLength="168.082" x="518.5" y="602.4551">-_read_chunk(file_obj) : list</text></g><!--class LogProcessor--><g class="entity" data-entity="LogProcessor" data-source-line="51" data-uid="ent0007" id="entity_LogProcessor"><rect fill="#F1F1F1" height="290.0742" rx="2.5" ry="2.5" style="stroke:#181818;stroke-width:0.5;" width="325.209" x="510.5" y="44"/><ellipse cx="625.665" cy="60" fill="#C2C2C2" rx="11" ry="11" style="stroke:#181818;stroke-width:1;"/><path d="M628.4307,55.875 Q628.5869,55.6563 628.7744,55.5469 Q628.9619,55.4375 629.1807,55.4375 Q629.5557,55.4375 629.79,55.7031 Q630.0244,55.9531 630.0244,56.5625 L630.0244,58.0156 Q630.0244,58.625 629.79,58.8906 Q629.5557,59.1563 629.1807,59.1563 Q628.8369,59.1563 628.6338,58.9531 Q628.4307,58.7656 628.3213,58.25 Q628.2744,57.8906 628.0869,57.7031 Q627.7588,57.3281 627.1494,57.1094 Q626.54,56.8906 625.915,56.8906 Q625.1494,56.8906 624.5088,57.2188 Q623.8838,57.5469 623.3838,58.2969 Q622.8994,59.0469 622.8994,60.0781 L622.8994,61.1719 Q622.8994,62.4063 623.79,63.2344 Q624.6807,64.0469 626.2744,64.0469 Q627.2119,64.0469 627.8682,63.7969 Q628.2588,63.6406 628.6807,63.2031 Q628.9463,62.9375 629.0869,62.8594 Q629.2432,62.7813 629.4463,62.7813 Q629.7744,62.7813 630.0244,63.0469 Q630.29,63.2969 630.29,63.6406 Q630.29,63.9844 629.9463,64.3906 Q629.4463,64.9688 628.6494,65.2969 Q627.5713,65.75 626.2744,65.75 Q624.7588,65.75 623.5557,65.125 Q622.5713,64.625 621.8838,63.5625 Q621.1963,62.4844 621.1963,61.2031 L621.1963,60.0469 Q621.1963,58.7188 621.8057,57.5781 Q622.4307,56.4219 623.5244,55.8125 Q624.6182,55.1875 625.8525,55.1875 Q626.5869,55.1875 627.2275,55.3594 Q627.8838,55.5156 628.4307,55.875 Z " fill="#000000"/><text fill="#000000" font-family="sans-serif" font-size="14" lengthAdjust="spacing" textLength="86.3789" x="646.165" y="65.7969">LogProcessor</text><line style="stroke:#181818;stroke-width:0.5;" x1="511.5" x2="834.709" y1="76" y2="76"/><text fill="#000000" font-family="sans-serif" font-size="14" lengthAdjust="spacing" textLength="87.9238" x="516.5" y="95.1074">-input_file : str</text><text fill="#000000" font-family="sans-serif" font-size="14" lengthAdjust="spacing" textLength="129.9443" x="516.5" y="113.7285">-num_processes : int</text><text fill="#000000" font-family="sans-serif" font-size="14" lengthAdjust="spacing" textLength="107.3584" x="516.5" y="132.3496">-num_writers : int</text><text fill="#000000" font-family="sans-serif" font-size="14" lengthAdjust="spacing" textLength="120.6064" x="516.5" y="150.9707">-parser : LogParser</text><text fill="#000000" font-family="sans-serif" font-size="14" lengthAdjust="spacing" textLength="198.4473" x="516.5" y="169.5918">-queue : multiprocessing.Queue</text><text fill="#000000" font-family="sans-serif" font-size="14" lengthAdjust="spacing" textLength="210.1025" x="516.5" y="188.2129">-stop_flag : multiprocessing.Event</text><line style="stroke:#181818;stroke-width:0.5;" x1="511.5" x2="834.709" y1="195.7266" y2="195.7266"/><text fill="#000000" font-family="sans-serif" font-size="14" lengthAdjust="spacing" textLength="313.209" x="516.5" y="214.834">+__init__(input_file, num_processes, num_writers)</text><text fill="#000000" font-family="sans-serif" font-size="14" lengthAdjust="spacing" textLength="65.7344" x="516.5" y="233.4551">+start(live)</text><text fill="#000000" font-family="sans-serif" font-size="14" lengthAdjust="spacing" textLength="113.5996" x="516.5" y="252.0762">-_on_result(result)</text><text fill="#000000" font-family="sans-serif" font-size="14" lengthAdjust="spacing" textLength="148.6475" x="516.5" y="270.6973">-_safe_queue_put(item)</text><text fill="#000000" font-family="sans-serif" font-size="14" lengthAdjust="spacing" textLength="96.4756" x="516.5" y="289.3184">-_on_error(exc)</text><text fill="#000000" font-family="sans-serif" font-size="14" lengthAdjust="spacing" textLength="149.4268" x="516.5" y="307.9395">-_handle_interrupt(pool)</text><text fill="#000000" font-family="sans-serif" font-size="14" lengthAdjust="spacing" textLength="157.1719" x="516.5" y="326.5605">-_shutdown(pool, writers)</text></g><!--class WriterProcess--><g class="entity" data-entity="WriterProcess" data-source-line="67" data-uid="ent0008" id="entity_WriterProcess"><rect fill="#F1F1F1" height="178.3477" rx="2.5" ry="2.5" style="stroke:#181818;stroke-width:0.5;" width="194.9092" x="868.5" y="422.5"/><ellipse cx="917.7563" cy="438.5" fill="#C2C2C2" rx="11" ry="11" style="stroke:#181818;stroke-width:1;"/><path d="M920.522,434.375 Q920.6782,434.1563 920.8657,434.0469 Q921.0532,433.9375 921.272,433.9375 Q921.647,433.9375 921.8813,434.2031 Q922.1157,434.4531 922.1157,435.0625 L922.1157,436.5156 Q922.1157,437.125 921.8813,437.3906 Q921.647,437.6563 921.272,437.6563 Q920.9282,437.6563 920.7251,437.4531 Q920.522,437.2656 920.4126,436.75 Q920.3657,436.3906 920.1782,436.2031 Q919.8501,435.8281 919.2407,435.6094 Q918.6313,435.3906 918.0063,435.3906 Q917.2407,435.3906 916.6001,435.7188 Q915.9751,436.0469 915.4751,436.7969 Q914.9907,437.5469 914.9907,438.5781 L914.9907,439.6719 Q914.9907,440.9063 915.8813,441.7344 Q916.772,442.5469 918.3657,442.5469 Q919.3032,442.5469 919.9595,442.2969 Q920.3501,442.1406 920.772,441.7031 Q921.0376,441.4375 921.1782,441.3594 Q921.3345,441.2813 921.5376,441.2813 Q921.8657,441.2813 922.1157,441.5469 Q922.3813,441.7969 922.3813,442.1406 Q922.3813,442.4844 922.0376,442.8906 Q921.5376,443.4688 920.7407,443.7969 Q919.6626,444.25 918.3657,444.25 Q916.8501,444.25 915.647,443.625 Q914.6626,443.125 913.9751,442.0625 Q913.2876,440.9844 913.2876,439.7031 L913.2876,438.5469 Q913.2876,437.2188 913.897,436.0781 Q914.522,434.9219 915.6157,434.3125 Q916.7095,433.6875 917.9438,433.6875 Q918.6782,433.6875 919.3188,433.8594 Q919.9751,434.0156 920.522,434.375 Z " fill="#000000"/><text fill="#000000" font-family="sans-serif" font-size="14" lengthAdjust="spacing" textLength="87.8965" x="938.2563" y="444.2969">WriterProcess</text><line style="stroke:#181818;stroke-width:0.5;" x1="869.5" x2="1062.4092" y1="454.5" y2="454.5"/><text fill="#000000" font-family="sans-serif" font-size="14" lengthAdjust="spacing" textLength="125.2822" x="874.5" y="473.6074">-flush_interval : float</text><text fill="#000000" font-family="sans-serif" font-size="14" lengthAdjust="spacing" textLength="174.3369" x="874.5" y="492.2285">-facade : ChronoLogFacade</text><text fill="#000000" font-family="sans-serif" font-size="14" lengthAdjust="spacing" textLength="109.71" x="874.5" y="510.8496">-msg_cache : dict</text><line style="stroke:#181818;stroke-width:0.5;" x1="869.5" x2="1062.4092" y1="518.3633" y2="518.3633"/><text fill="#000000" font-family="sans-serif" font-size="14" lengthAdjust="spacing" textLength="149.0303" x="874.5" y="537.4707">+__init__(flush_interval)</text><text fill="#000000" font-family="sans-serif" font-size="14" lengthAdjust="spacing" textLength="141.2646" x="874.5" y="556.0918">+run(queue, stop_flag)</text><text fill="#000000" font-family="sans-serif" font-size="14" lengthAdjust="spacing" textLength="182.9092" x="874.5" y="574.7129">-_process_queue(queue_obj)</text><text fill="#000000" font-family="sans-serif" font-size="14" lengthAdjust="spacing" textLength="173.5166" x="874.5" y="593.334">-_prepare_entry(entry) : dict</text></g><!--link ChronoLogFacade to SQLConnection--><g class="link" data-entity-1="ChronoLogFacade" data-entity-2="SQLConnection" data-source-line="78" data-uid="lnk9" id="link_ChronoLogFacade_SQLConnection"><path codeLine="78" d="M792,905.11 C792,931.23 792,952.87 792,977.98" fill="none" id="ChronoLogFacade-to-SQLConnection" style="stroke:#181818;stroke-width:1;"/><polygon fill="#181818" points="792,983.98,796,974.98,792,978.98,788,974.98,792,983.98" style="stroke:#181818;stroke-width:1;"/><text fill="#000000" font-family="sans-serif" font-size="13" lengthAdjust="spacing" textLength="27.46" x="793" y="950.0283">uses</text></g><!--link LogProcessor to LogParser--><g class="link" data-entity-1="LogProcessor" data-entity-2="LogParser" data-source-line="79" data-uid="lnk10" id="link_LogProcessor_LogParser"><path codeLine="79" d="M510.36,313.23 C466.82,346.22 425.1326,377.807 383.6826,409.207" fill="none" id="LogProcessor-to-LogParser" style="stroke:#181818;stroke-width:1;"/><polygon fill="#181818" points="378.9,412.83,388.4893,410.5839,382.8855,409.8108,383.6586,404.207,378.9,412.83" style="stroke:#181818;stroke-width:1;"/><text fill="#000000" font-family="sans-serif" font-size="13" lengthAdjust="spacing" textLength="27.46" x="437" y="379.0283">uses</text></g><!--link LogProcessor to FileChunkReader--><g class="link" data-entity-1="LogProcessor" data-entity-2="FileChunkReader" data-source-line="80" data-uid="lnk11" id="link_LogProcessor_FileChunkReader"><path codeLine="80" d="M673,334.31 C673,360.9 673,382.07 673,406.87" fill="none" id="LogProcessor-to-FileChunkReader" style="stroke:#181818;stroke-width:1;"/><polygon fill="#181818" points="673,412.87,677,403.87,673,407.87,669,403.87,673,412.87" style="stroke:#181818;stroke-width:1;"/><text fill="#000000" font-family="sans-serif" font-size="13" lengthAdjust="spacing" textLength="27.46" x="674" y="379.0283">uses</text></g><!--link LogProcessor to WriterProcess--><g class="link" data-entity-1="LogProcessor" data-entity-2="WriterProcess" data-source-line="81" data-uid="lnk12" id="link_LogProcessor_WriterProcess"><path codeLine="81" d="M804.93,334.31 C832.27,364.22 856.2414,390.4418 881.0914,417.6218" fill="none" id="LogProcessor-to-WriterProcess" style="stroke:#181818;stroke-width:1;"/><polygon fill="#181818" points="885.14,422.05,882.0192,412.7086,881.7662,418.3598,876.115,418.1068,885.14,422.05" style="stroke:#181818;stroke-width:1;"/><text fill="#000000" font-family="sans-serif" font-size="13" lengthAdjust="spacing" textLength="44.0781" x="846" y="379.0283">spawns</text></g><!--link WriterProcess to ChronoLogFacade--><g class="link" data-entity-1="WriterProcess" data-entity-2="ChronoLogFacade" data-source-line="82" data-uid="lnk13" id="link_WriterProcess_ChronoLogFacade"><path codeLine="82" d="M911.9,600.65 C894.74,628.6 878.7179,654.706 860.8379,683.846" fill="none" id="WriterProcess-to-ChronoLogFacade" style="stroke:#181818;stroke-width:1;"/><polygon fill="#181818" points="857.7,688.96,865.8162,683.3809,860.3149,684.6983,858.9975,679.197,857.7,688.96" style="stroke:#181818;stroke-width:1;"/><text fill="#000000" font-family="sans-serif" font-size="13" lengthAdjust="spacing" textLength="27.46" x="885" y="655.0283">uses</text></g><!--SRC=[bLPDRzim3BtdLmWzEPXJx9p3WArOWG4zjEjXHq6H6KUBB6dwoCU6_lTHic5BJb9iFZY6I3wHxv5It5uemoph29VCkS_UMx497hvnhLx5Ro0V5svqwRJIV6Tr1yJR09d5CBvdBRpwimHYWNkcMWcBnR1ExXumJEadtP8lk0IgkID_5Wk2JzgNlBuyFMYbC59eXIOoF2l2nsNgC3dLaZN1Zz7Z0w5KAE4fhPRPOWkUJg7L4gFCMJSRVZ_jaxd32JYMJNy5iESglMkIQdCnL0hdhtWhJEfQn1LNPofdg68TtCHT4GhA1GkqOPvjc0CA9tHmGs5lEM4ZeO-CimOAofeDGXUC_WjR7JY7Mhd4LIEudzcrfTm2mre6JogQoaDd9Ax56A7o4A4SM4-zw40AXQKSGFaglTDYJORliy7l2NBwFZ0PmDKa_URPReBSqwluhj_0pMiRlGm2L_65Ae2b_TUKo1MjOxWBNSTGvHlCH7HCHY1t7M2FyXf1Ek4Bj48zrEsPMOmfT3imIosqS9flio9xE4S-q8osP-OzsAkYZX0v0oPkHMFzhahlc9WF1YSqRrHl6H-AyQmpoNKvcxRL00RMQkleaLc58zd3rcIC7JXr_L82ke30L0NRIFZFOCgQPcWc92KohKO9-_5w1wXefaAHHo7XOHVK_ZlWE9MwRD66hU9tFVUx_7IA8TJ5ax8S0AnIIucoe5Au9rgtKhFS3dgBKZ6-WmQj6wrbPfJY0FFLJEOnephBe2wth1F8iWn7Kp7wo2VcqD24qiFgpS_t6zTgZXEgIuxm9WYUHe2BZb6XewOF0dT1KxGURKpiqcRw6LbFyv8PySWDSRCkI2y6VEp5-vUudlavhmtTIjPUyVqQ- -CQmLCvTPb_dIUSauiTPtrLKexiuWrXmU6sLVzJ61tRfYide9Z1LuZPpOFJe5LmueLXnrI3KYMfRJ2-CjWe9VGk-4OVLRBKf4YuKFH7iWoYbcqlWzkzry7R_kfPpo-ZpALpBUMnnozFpgcPYtroJcrGLQAddbGigXnawJdiNLF_bZw0VOH7bl9uXATtSOw_BP2F-NMwMdsQ_ITPau3oBue1Y5xJKNxBOtwqtF8hbS0fCkoetA9SZexpP0V0lm00]--></g></svg>