<svg xmlns="http://www.w3.org/2000/svg" xmlns:xlink="http://www.w3.org/1999/xlink" contentStyleType="text/css" data-diagram-type="STATE" height="1514.7px" preserveAspectRatio="none" style="width:596px;height:1514px;background:#FFFFFF;" version="1.1" viewBox="0 0 596 1514" width="596.7px" zoomAndPan="magnify"><defs/><g><g id="Initialized"><rect fill="#F1F1F1" height="45" rx="11.25" ry="11.25" style="stroke:#181818;stroke-width:0.45;" width="70.5287" x="122.373" y="78.3"/><line style="stroke:#181818;stroke-width:0.45;" x1="122.373" x2="192.9017" y1="104.059" y2="104.059"/><text fill="#000000" font-family="sans-serif" font-size="12.6" lengthAdjust="spacing" textLength="52.5287" x="131.373" y="96.3967">Initialized</text></g><path d="M76.923,194.4 L238.3948,194.4 A11.25,11.25 0 0 1 249.6448,205.65 L249.6448,220.159 L65.673,220.159 L65.673,205.65 A11.25,11.25 0 0 1 76.923,194.4" fill="#F1F1F1"/><rect fill="none" height="294.859" rx="11.25" ry="11.25" style="stroke:#181818;stroke-width:0.45;" width="183.9718" x="65.673" y="194.4"/><line style="stroke:#181818;stroke-width:0.45;" x1="65.673" x2="249.6448" y1="220.159" y2="220.159"/><text fill="#000000" font-family="sans-serif" font-size="12.6" lengthAdjust="spacing" textLength="43.4232" x="135.9473" y="212.4967">Starting</text><g id="Starting.SpawnWriters"><rect fill="#F1F1F1" height="45" rx="11.25" ry="11.25" style="stroke:#181818;stroke-width:0.45;" width="155.9417" x="80.973" y="280.459"/><line style="stroke:#181818;stroke-width:0.45;" x1="80.973" x2="236.9147" y1="306.218" y2="306.218"/><text fill="#000000" font-family="sans-serif" font-size="12.6" lengthAdjust="spacing" textLength="137.9417" x="89.973" y="298.5557">Spawn Writer Processes</text></g><g id="Starting.CreatePool"><rect fill="#F1F1F1" height="45" rx="11.25" ry="11.25" style="stroke:#181818;stroke-width:0.45;" width="133.5533" x="92.223" y="357.859"/><line style="stroke:#181818;stroke-width:0.45;" x1="92.223" x2="225.7763" y1="383.618" y2="383.618"/><text fill="#000000" font-family="sans-serif" font-size="12.6" lengthAdjust="spacing" textLength="115.5533" x="101.223" y="375.9557">Create Process Pool</text></g><g id="Starting.InitReader"><rect fill="#F1F1F1" height="45" rx="11.25" ry="11.25" style="stroke:#181818;stroke-width:0.45;" width="165.0718" x="76.473" y="435.259"/><line style="stroke:#181818;stroke-width:0.45;" x1="76.473" x2="241.5448" y1="461.018" y2="461.018"/><text fill="#000000" font-family="sans-serif" font-size="12.6" lengthAdjust="spacing" textLength="147.0718" x="85.473" y="453.3557">Initialize FileChunkReader</text></g><ellipse cx="158.823" cy="239.059" fill="#222222" rx="9" ry="9" style="stroke:#222222;stroke-width:0.9;"/><!--link *start*Starting to SpawnWriters--><g class="link" data-entity-1=".start.Starting" data-entity-2="SpawnWriters" data-source-line="15" data-uid="lnk6" id="link_.start.Starting_SpawnWriters"><path d="M158.823,248.077 C158.823,256.231 158.823,263.755 158.823,274.906" fill="none" id="*start*Starting-to-SpawnWriters" style="stroke:#181818;stroke-width:0.9;"/><polygon fill="#181818" points="158.823,280.306,162.423,272.206,158.823,275.806,155.223,272.206,158.823,280.306" style="stroke:#181818;stroke-width:0.9;"/></g><!--link SpawnWriters to CreatePool--><g class="link" data-entity-1="SpawnWriters" data-entity-2="CreatePool" data-source-line="16" data-uid="lnk7" id="link_SpawnWriters_CreatePool"><path d="M158.823,325.729 C158.823,335.755 158.823,342.217 158.823,352.243" fill="none" id="SpawnWriters-to-CreatePool" style="stroke:#181818;stroke-width:0.9;"/><polygon fill="#181818" points="158.823,357.643,162.423,349.543,158.823,353.143,155.223,349.543,158.823,357.643" style="stroke:#181818;stroke-width:0.9;"/></g><!--link CreatePool to InitReader--><g class="link" data-entity-1="CreatePool" data-entity-2="InitReader" data-source-line="17" data-uid="lnk8" id="link_CreatePool_InitReader"><path d="M158.823,403.129 C158.823,413.155 158.823,419.617 158.823,429.643" fill="none" id="CreatePool-to-InitReader" style="stroke:#181818;stroke-width:0.9;"/><polygon fill="#181818" points="158.823,435.043,162.423,426.943,158.823,430.543,155.223,426.943,158.823,435.043" style="stroke:#181818;stroke-width:0.9;"/></g><path d="M52.173,560.7 L262.3516,560.7 A11.25,11.25 0 0 1 273.6016,571.95 L273.6016,586.459 L40.923,586.459 L40.923,571.95 A11.25,11.25 0 0 1 52.173,560.7" fill="#F1F1F1"/><rect fill="none" height="329.959" rx="11.25" ry="11.25" style="stroke:#181818;stroke-width:0.45;" width="232.6786" x="40.923" y="560.7"/><line style="stroke:#181818;stroke-width:0.45;" x1="40.923" x2="273.6016" y1="586.459" y2="586.459"/><text fill="#000000" font-family="sans-serif" font-size="12.6" lengthAdjust="spacing" textLength="62.3294" x="126.0976" y="578.7967">Processing</text><g id="Processing.Reading"><rect fill="#F1F1F1" height="45" rx="11.25" ry="11.25" style="stroke:#181818;stroke-width:0.45;" width="111.1588" x="102.573" y="647.659"/><line style="stroke:#181818;stroke-width:0.45;" x1="102.573" x2="213.7318" y1="673.418" y2="673.418"/><text fill="#000000" font-family="sans-serif" font-size="12.6" lengthAdjust="spacing" textLength="93.1588" x="111.573" y="665.7557">Reading Chunks</text></g><g id="Processing.Parsing"><rect fill="#F1F1F1" height="45" rx="11.25" ry="11.25" style="stroke:#181818;stroke-width:0.45;" width="119.5137" x="51.723" y="742.159"/><line style="stroke:#181818;stroke-width:0.45;" x1="51.723" x2="171.2367" y1="767.918" y2="767.918"/><text fill="#000000" font-family="sans-serif" font-size="12.6" lengthAdjust="spacing" textLength="101.5137" x="60.723" y="760.2557">Parsing (Workers)</text></g><g id="Processing.Queuing"><rect fill="#F1F1F1" height="45" rx="11.25" ry="11.25" style="stroke:#181818;stroke-width:0.45;" width="111.1526" x="101.673" y="836.659"/><line style="stroke:#181818;stroke-width:0.45;" x1="101.673" x2="212.8256" y1="862.418" y2="862.418"/><text fill="#000000" font-family="sans-serif" font-size="12.6" lengthAdjust="spacing" textLength="93.1526" x="110.673" y="854.7557">Queuing Results</text></g><ellipse cx="158.373" cy="605.359" fill="#222222" rx="9" ry="9" style="stroke:#222222;stroke-width:0.9;"/><!--link *start*Processing to Reading--><g class="link" data-entity-1=".start.Processing" data-entity-2="Reading" data-source-line="27" data-uid="lnk11" id="link_.start.Processing_Reading"><path d="M158.373,614.494 C158.373,622.837 158.373,630.685 158.373,642.061" fill="none" id="*start*Processing-to-Reading" style="stroke:#181818;stroke-width:0.9;"/><polygon fill="#181818" points="158.373,647.461,161.973,639.361,158.373,642.961,154.773,639.361,158.373,647.461" style="stroke:#181818;stroke-width:0.9;"/></g><!--link Reading to Parsing--><g class="link" data-entity-1="Reading" data-entity-2="Parsing" data-source-line="28" data-uid="lnk12" id="link_Reading_Parsing"><path d="M139.707,693.019 C136.017,698.014 132.417,703.459 129.573,708.859 C124.11,719.245 121.3724,726.4213 118.3934,736.7803" fill="none" id="Reading-to-Parsing" style="stroke:#181818;stroke-width:0.9;"/><polygon fill="#181818" points="116.901,741.97,122.5994,735.1804,118.1447,737.6453,115.6799,733.1905,116.901,741.97" style="stroke:#181818;stroke-width:0.9;"/><text fill="#000000" font-family="sans-serif" font-size="11.7" lengthAdjust="spacing" textLength="60.4881" x="130.473" y="722.3845">Chunk read</text></g><!--link Parsing to Queuing--><g class="link" data-entity-1="Parsing" data-entity-2="Queuing" data-source-line="29" data-uid="lnk13" id="link_Parsing_Queuing"><path d="M114.498,787.24 C116.496,797.689 119.781,810.163 125.073,820.459 C127.917,825.994 128.3162,827.2141 132.3212,832.1371" fill="none" id="Parsing-to-Queuing" style="stroke:#181818;stroke-width:0.9;"/><polygon fill="#181818" points="135.729,836.326,133.4099,827.7708,132.8892,832.8352,127.8247,832.3145,135.729,836.326" style="stroke:#181818;stroke-width:0.9;"/><text fill="#000000" font-family="sans-serif" font-size="11.7" lengthAdjust="spacing" textLength="65.6811" x="125.973" y="816.8845">Result ready</text></g><!--link Queuing to Reading--><g class="link" data-entity-1="Queuing" data-entity-2="Reading" data-source-line="30" data-uid="lnk14" id="link_Queuing_Reading"><path d="M181.872,836.551 C185.877,831.682 189.45,826.237 191.673,820.459 C209.502,774.172 209.196,755.263 191.673,708.859 C189.513,703.135 189.4209,701.9178 185.5239,697.0668" fill="none" id="Queuing-to-Reading" style="stroke:#181818;stroke-width:0.9;"/><polygon fill="#181818" points="182.142,692.857,184.4083,701.4263,184.9603,696.3652,190.0214,696.9171,182.142,692.857" style="stroke:#181818;stroke-width:0.9;"/><text fill="#000000" font-family="sans-serif" font-size="11.7" lengthAdjust="spacing" textLength="58.5286" x="206.073" y="769.6345">Next chunk</text></g><path d="M399.573,578.25 L573.9647,578.25 A11.25,11.25 0 0 1 585.2147,589.5 L585.2147,604.009 L388.323,604.009 L388.323,589.5 A11.25,11.25 0 0 1 399.573,578.25" fill="#F1F1F1"/><rect fill="none" height="294.859" rx="11.25" ry="11.25" style="stroke:#181818;stroke-width:0.45;" width="196.8917" x="388.323" y="578.25"/><line style="stroke:#181818;stroke-width:0.45;" x1="388.323" x2="585.2147" y1="604.009" y2="604.009"/><text fill="#000000" font-family="sans-serif" font-size="12.6" lengthAdjust="spacing" textLength="39.2027" x="467.1675" y="596.3467">Writing</text><g id="Writing.WaitQueue"><rect fill="#F1F1F1" height="45" rx="11.25" ry="11.25" style="stroke:#181818;stroke-width:0.45;" width="130.7417" x="446.373" y="664.309"/><line style="stroke:#181818;stroke-width:0.45;" x1="446.373" x2="577.1147" y1="690.068" y2="690.068"/><text fill="#000000" font-family="sans-serif" font-size="12.6" lengthAdjust="spacing" textLength="112.7417" x="455.373" y="682.4057">Wait for Queue Item</text></g><g id="Writing.ProcessItem"><rect fill="#F1F1F1" height="45" rx="11.25" ry="11.25" style="stroke:#181818;stroke-width:0.45;" width="132.852" x="399.123" y="741.709"/><line style="stroke:#181818;stroke-width:0.45;" x1="399.123" x2="531.975" y1="767.468" y2="767.468"/><text fill="#000000" font-family="sans-serif" font-size="12.6" lengthAdjust="spacing" textLength="114.852" x="408.123" y="759.8057">Process Queue Item</text></g><g id="Writing.BulkInsert"><rect fill="#F1F1F1" height="45" rx="11.25" ry="11.25" style="stroke:#181818;stroke-width:0.45;" width="112.5369" x="455.373" y="819.109"/><line style="stroke:#181818;stroke-width:0.45;" x1="455.373" x2="567.9099" y1="844.868" y2="844.868"/><text fill="#000000" font-family="sans-serif" font-size="12.6" lengthAdjust="spacing" textLength="94.5369" x="464.373" y="837.2057">Bulk Insert to DB</text></g><ellipse cx="511.623" cy="622.909" fill="#222222" rx="9" ry="9" style="stroke:#222222;stroke-width:0.9;"/><!--link *start*Writing to WaitQueue--><g class="link" data-entity-1=".start.Writing" data-entity-2="WaitQueue" data-source-line="42" data-uid="lnk19" id="link_.start.Writing_WaitQueue"><path d="M511.623,631.927 C511.623,640.081 511.623,647.605 511.623,658.756" fill="none" id="*start*Writing-to-WaitQueue" style="stroke:#181818;stroke-width:0.9;"/><polygon fill="#181818" points="511.623,664.156,515.223,656.056,511.623,659.656,508.023,656.056,511.623,664.156" style="stroke:#181818;stroke-width:0.9;"/></g><!--link WaitQueue to ProcessItem--><g class="link" data-entity-1="WaitQueue" data-entity-2="ProcessItem" data-source-line="43" data-uid="lnk20" id="link_WaitQueue_ProcessItem"><path d="M498.348,709.579 C492.255,719.605 487.8564,726.8505 481.7724,736.8765" fill="none" id="WaitQueue-to-ProcessItem" style="stroke:#181818;stroke-width:0.9;"/><polygon fill="#181818" points="478.971,741.493,486.2508,736.4358,481.3055,737.6459,480.0954,732.7006,478.971,741.493" style="stroke:#181818;stroke-width:0.9;"/></g><!--link ProcessItem to BulkInsert--><g class="link" data-entity-1="ProcessItem" data-entity-2="BulkInsert" data-source-line="44" data-uid="lnk21" id="link_ProcessItem_BulkInsert"><path d="M478.998,786.979 C485.091,797.005 489.4896,804.2505 495.5736,814.2765" fill="none" id="ProcessItem-to-BulkInsert" style="stroke:#181818;stroke-width:0.9;"/><polygon fill="#181818" points="498.375,818.893,497.2506,810.1006,496.0405,815.0459,491.0952,813.8358,498.375,818.893" style="stroke:#181818;stroke-width:0.9;"/></g><!--link BulkInsert to WaitQueue--><g class="link" data-entity-1="BulkInsert" data-entity-2="WaitQueue" data-source-line="45" data-uid="lnk22" id="link_BulkInsert_WaitQueue"><path d="M526.428,818.857 C531.972,809.398 537.615,797.941 540.423,786.709 C545.274,767.305 545.274,761.113 540.423,741.709 C537.615,730.477 534.7025,723.6788 529.1585,714.2198" fill="none" id="BulkInsert-to-WaitQueue" style="stroke:#181818;stroke-width:0.9;"/><polygon fill="#181818" points="526.428,709.561,527.418,718.3695,528.7035,713.4433,533.6297,714.7288,526.428,709.561" style="stroke:#181818;stroke-width:0.9;"/></g><path d="M62.523,962.1 L252.6709,962.1 A11.25,11.25 0 0 1 263.9209,973.35 L263.9209,987.859 L51.273,987.859 L51.273,973.35 A11.25,11.25 0 0 1 62.523,962.1" fill="#F1F1F1"/><rect fill="none" height="372.259" rx="11.25" ry="11.25" style="stroke:#181818;stroke-width:0.45;" width="212.6479" x="51.273" y="962.1"/><line style="stroke:#181818;stroke-width:0.45;" x1="51.273" x2="263.9209" y1="987.859" y2="987.859"/><text fill="#000000" font-family="sans-serif" font-size="12.6" lengthAdjust="spacing" textLength="78.4485" x="118.3727" y="980.1967">ShuttingDown</text><g id="ShuttingDown.SetStop"><rect fill="#F1F1F1" height="45" rx="11.25" ry="11.25" style="stroke:#181818;stroke-width:0.45;" width="94.3444" x="111.573" y="1048.159"/><line style="stroke:#181818;stroke-width:0.45;" x1="111.573" x2="205.9174" y1="1073.918" y2="1073.918"/><text fill="#000000" font-family="sans-serif" font-size="12.6" lengthAdjust="spacing" textLength="76.3444" x="120.573" y="1066.2557">Set Stop Flag</text></g><g id="ShuttingDown.ClosePool"><rect fill="#F1F1F1" height="45" rx="11.25" ry="11.25" style="stroke:#181818;stroke-width:0.45;" width="139.152" x="89.073" y="1125.559"/><line style="stroke:#181818;stroke-width:0.45;" x1="89.073" x2="228.225" y1="1151.318" y2="1151.318"/><text fill="#000000" font-family="sans-serif" font-size="12.6" lengthAdjust="spacing" textLength="121.152" x="98.073" y="1143.6557">Close/Terminate Pool</text></g><g id="ShuttingDown.DrainQueue"><rect fill="#F1F1F1" height="45" rx="11.25" ry="11.25" style="stroke:#181818;stroke-width:0.45;" width="193.7479" x="62.073" y="1202.959"/><line style="stroke:#181818;stroke-width:0.45;" x1="62.073" x2="255.8209" y1="1228.718" y2="1228.718"/><text fill="#000000" font-family="sans-serif" font-size="12.6" lengthAdjust="spacing" textLength="175.7479" x="71.073" y="1221.0557">Wait for Writers to Drain Queue</text></g><g id="ShuttingDown.JoinWriters"><rect fill="#F1F1F1" height="45" rx="11.25" ry="11.25" style="stroke:#181818;stroke-width:0.45;" width="84.5068" x="116.523" y="1280.359"/><line style="stroke:#181818;stroke-width:0.45;" x1="116.523" x2="201.0298" y1="1306.118" y2="1306.118"/><text fill="#000000" font-family="sans-serif" font-size="12.6" lengthAdjust="spacing" textLength="66.5068" x="125.523" y="1298.4557">Join Writers</text></g><ellipse cx="158.823" cy="1006.759" fill="#222222" rx="9" ry="9" style="stroke:#222222;stroke-width:0.9;"/><!--link *start*ShuttingDown to SetStop--><g class="link" data-entity-1=".start.ShuttingDown" data-entity-2="SetStop" data-source-line="56" data-uid="lnk25" id="link_.start.ShuttingDown_SetStop"><path d="M158.823,1015.777 C158.823,1023.931 158.823,1031.455 158.823,1042.606" fill="none" id="*start*ShuttingDown-to-SetStop" style="stroke:#181818;stroke-width:0.9;"/><polygon fill="#181818" points="158.823,1048.006,162.423,1039.906,158.823,1043.506,155.223,1039.906,158.823,1048.006" style="stroke:#181818;stroke-width:0.9;"/></g><!--link SetStop to ClosePool--><g class="link" data-entity-1="SetStop" data-entity-2="ClosePool" data-source-line="57" data-uid="lnk26" id="link_SetStop_ClosePool"><path d="M158.823,1093.429 C158.823,1103.455 158.823,1109.917 158.823,1119.943" fill="none" id="SetStop-to-ClosePool" style="stroke:#181818;stroke-width:0.9;"/><polygon fill="#181818" points="158.823,1125.343,162.423,1117.243,158.823,1120.843,155.223,1117.243,158.823,1125.343" style="stroke:#181818;stroke-width:0.9;"/></g><!--link ClosePool to DrainQueue--><g class="link" data-entity-1="ClosePool" data-entity-2="DrainQueue" data-source-line="58" data-uid="lnk27" id="link_ClosePool_DrainQueue"><path d="M158.823,1170.829 C158.823,1180.855 158.823,1187.317 158.823,1197.343" fill="none" id="ClosePool-to-DrainQueue" style="stroke:#181818;stroke-width:0.9;"/><polygon fill="#181818" points="158.823,1202.743,162.423,1194.643,158.823,1198.243,155.223,1194.643,158.823,1202.743" style="stroke:#181818;stroke-width:0.9;"/></g><!--link DrainQueue to JoinWriters--><g class="link" data-entity-1="DrainQueue" data-entity-2="JoinWriters" data-source-line="59" data-uid="lnk28" id="link_DrainQueue_JoinWriters"><path d="M158.823,1248.229 C158.823,1258.255 158.823,1264.717 158.823,1274.743" fill="none" id="DrainQueue-to-JoinWriters" style="stroke:#181818;stroke-width:0.9;"/><polygon fill="#181818" points="158.823,1280.143,162.423,1272.043,158.823,1275.643,155.223,1272.043,158.823,1280.143" style="stroke:#181818;stroke-width:0.9;"/></g><g id="Stopped"><rect fill="#F1F1F1" height="45" rx="11.25" ry="11.25" style="stroke:#181818;stroke-width:0.45;" width="64.9424" x="125.073" y="1389.6"/><line style="stroke:#181818;stroke-width:0.45;" x1="125.073" x2="190.0154" y1="1415.359" y2="1415.359"/><text fill="#000000" font-family="sans-serif" font-size="12.6" lengthAdjust="spacing" textLength="46.9424" x="134.073" y="1407.6967">Stopped</text></g><ellipse cx="157.473" cy="14.4" fill="#222222" rx="9" ry="9" style="stroke:#222222;stroke-width:0.9;"/><ellipse cx="157.473" cy="1499.4" fill="none" rx="9.9" ry="9.9" style="stroke:#222222;stroke-width:0.9;"/><ellipse cx="157.473" cy="1499.4" fill="#222222" rx="5.4" ry="5.4" style="stroke:#222222;stroke-width:0.9;"/><!--link *start* to Initialized--><g class="link" data-entity-1=".start." data-entity-2="Initialized" data-source-line="3" data-uid="lnk3" id="link_.start._Initialized"><path d="M157.473,23.409 C157.473,35.901 157.473,54.873 157.473,72.756" fill="none" id="*start*-to-Initialized" style="stroke:#181818;stroke-width:0.9;"/><polygon fill="#181818" points="157.473,78.156,161.073,70.056,157.473,73.656,153.873,70.056,157.473,78.156" style="stroke:#181818;stroke-width:0.9;"/></g><!--link Initialized to Starting--><g class="link" data-entity-1="Initialized" data-entity-2="Starting" data-source-line="8" data-uid="lnk4" id="link_Initialized_Starting"><path d="M157.473,123.363 C157.473,140.634 157.473,161.073 157.473,188.973" fill="none" id="Initialized-to-Starting" style="stroke:#181818;stroke-width:0.9;"/><polygon fill="#181818" points="157.473,194.373,161.073,186.273,157.473,189.873,153.873,186.273,157.473,194.373" style="stroke:#181818;stroke-width:0.9;"/><text fill="#000000" font-family="sans-serif" font-size="11.7" lengthAdjust="spacing" textLength="110.8529" x="158.373" y="163.8255">start(live=True/False)</text></g><!--link Starting to Processing--><g class="link" data-entity-1="Starting" data-entity-2="Processing" data-source-line="20" data-uid="lnk9" id="link_Starting_Processing"><path d="M157.473,489.789 C157.473,512.928 157.473,531.576 157.473,555.075" fill="none" id="Starting-to-Processing" style="stroke:#181818;stroke-width:0.9;"/><polygon fill="#181818" points="157.473,560.475,161.073,552.375,157.473,555.975,153.873,552.375,157.473,560.475" style="stroke:#181818;stroke-width:0.9;"/><text fill="#000000" font-family="sans-serif" font-size="11.7" lengthAdjust="spacing" textLength="83.8995" x="158.373" y="530.1255">Setup Complete</text></g><!--link Processing to ShuttingDown--><g class="link" data-entity-1="Processing" data-entity-2="ShuttingDown" data-source-line="33" data-uid="lnk15" id="link_Processing_ShuttingDown"><path d="M40.887,869.688 C32.382,885.321 25.083,901.548 19.773,918 C5.4,962.55 20.5213,1003.199 47.9623,1041.431" fill="none" id="Processing-to-ShuttingDown" style="stroke:#181818;stroke-width:0.9;"/><polygon fill="#181818" points="51.111,1045.818,49.3125,1037.1384,48.4871,1042.1622,43.4632,1041.3367,51.111,1045.818" style="stroke:#181818;stroke-width:0.9;"/><text fill="#000000" font-family="sans-serif" font-size="11.7" lengthAdjust="spacing" textLength="97.5305" x="20.673" y="931.5255">EOF (Batch Mode)</text></g><!--link Processing to ShuttingDown--><g class="link" data-entity-1="Processing" data-entity-2="ShuttingDown" data-source-line="34" data-uid="lnk16" id="link_Processing_ShuttingDown"><path d="M155.007,891.063 C154.917,900.171 154.836,909.198 154.773,918 C154.674,932.247 154.6429,941.589 154.6789,956.412" fill="none" id="Processing-to-ShuttingDown-1" style="stroke:#181818;stroke-width:0.9;"/><polygon fill="#181818" points="154.692,961.812,158.2723,953.7033,154.6811,957.312,151.0723,953.7208,154.692,961.812" style="stroke:#181818;stroke-width:0.9;"/><text fill="#000000" font-family="sans-serif" font-size="11.7" lengthAdjust="spacing" textLength="93.6571" x="155.673" y="931.5255">KeyboardInterrupt</text></g><!--link Processing to ShuttingDown--><g class="link" data-entity-1="Processing" data-entity-2="ShuttingDown" data-source-line="35" data-uid="lnk17" id="link_Processing_ShuttingDown"><path d="M246.042,891.072 C249.03,900.036 251.649,909.045 253.773,918 C257.22,932.508 258.4433,941.8875 257.1923,956.5755" fill="none" id="Processing-to-ShuttingDown-2" style="stroke:#181818;stroke-width:0.9;"/><polygon fill="#181818" points="256.734,961.956,261.0084,954.1907,257.1159,957.4722,253.8344,953.5797,256.734,961.956" style="stroke:#181818;stroke-width:0.9;"/><text fill="#000000" font-family="sans-serif" font-size="11.7" lengthAdjust="spacing" textLength="25.9994" x="256.473" y="931.5255">Error</text></g><!--link Processing to Writing--><g class="link" data-entity-1="Processing" data-entity-2="Writing" data-source-line="48" data-uid="lnk23" id="link_Processing_Writing"><path d="M274.068,725.85 C311.364,725.85 346.86,725.85 382.752,725.85" fill="none" id="Processing-to-Writing" style="stroke:#181818;stroke-width:0.9;"/><polygon fill="#181818" points="388.152,725.85,380.052,722.25,383.652,725.85,380.052,729.45,388.152,725.85" style="stroke:#181818;stroke-width:0.9;"/><text fill="#000000" font-family="sans-serif" font-size="11.7" lengthAdjust="spacing" textLength="81.3001" x="290.673" y="719.5755">Data via Queue</text></g><!--link ShuttingDown to Stopped--><g class="link" data-entity-1="ShuttingDown" data-entity-2="Stopped" data-source-line="62" data-uid="lnk29" id="link_ShuttingDown_Stopped"><path d="M157.473,1334.745 C157.473,1356.408 157.473,1370.259 157.473,1384.02" fill="none" id="ShuttingDown-to-Stopped" style="stroke:#181818;stroke-width:0.9;"/><polygon fill="#181818" points="157.473,1389.42,161.073,1381.32,157.473,1384.92,153.873,1381.32,157.473,1389.42" style="stroke:#181818;stroke-width:0.9;"/></g><!--link Stopped to *end*--><g class="link" data-entity-1="Stopped" data-entity-2=".end." data-source-line="67" data-uid="lnk31" id="link_Stopped_.end."><path d="M157.473,1435.014 C157.473,1452.636 157.473,1471.041 157.473,1483.92" fill="none" id="Stopped-to-*end*" style="stroke:#181818;stroke-width:0.9;"/><polygon fill="#181818" points="157.473,1489.32,161.073,1481.22,157.473,1484.82,153.873,1481.22,157.473,1489.32" style="stroke:#181818;stroke-width:0.9;"/></g><!--SRC=[XLInRXin3DtlAuXCJe4WcJeOQ0VRDP0KRTquW8SYW-fZRC7owI3nagP1_xqY9PrrPw3rO9kFJoJrAD9lbK5uVtC3BxgcVLNzUFS8LrSVuRRHf9NHlx6kAa-Ai8JWhVfJLIN0PzQa7Ebc1rFm_7TYz3D-U70TNY-LyNYP8_N4jmh29u8NwrQzDB1ncj31ojajUe_-0fG7SKMFBu_C7V9l8iFAMYFyYBDPia_rmb8RdE-xvd2FgaOdXzWTJJaaNrcEim9AG1YZb2UpbpF53iBrzsTNAZxgjaRgMfZROskGCEjLK0QASKG6vIPHgGILh9LoSdIoiUuGohqKOa9BulSEEoRUe-yCnNW9ErUaJ9JhaEkaRDDO5GGTQY5b1vDofcdA9QnNeMLNaIFGlk8lWYq7PFqAFQGv-uvOpeKDxsSAdxujOJ9JjDt35rk7L_Tl-cTy_McLgs-Rq4lNjVI_yCvPbpl3B-2iBHkb2Pwiaxk4kI4yYfQC2pJeJdgx8sw2sIxPiyuSmcFow0Z8mc8cP4OZUDwdOTBUAfzUdwImnJ-AUp97aKSjSNgt9oOaSQQmKAJWMQjuotuDbC8ELm5IM1AsXQLHkxW1a1WO3B-n7gyVq1rr8rFIJpyxniFVDoKFBSldb6vYJN9GxBCEtLcTrrAS2GRANJ3S54MXwN_S3uEYUajyexmdKxnbEbuUfMfnxTgsFQtfPCOLdGtcXGh_0W00]--></g></svg>