<svg xmlns="http://www.w3.org/2000/svg" viewBox="0 0 100 100">
  <defs>
    <linearGradient id="hotelGradient" x1="0%" y1="0%" x2="100%" y2="100%">
      <stop offset="0%" style="stop-color:#3b82f6;stop-opacity:1" />
      <stop offset="100%" style="stop-color:#1d4ed8;stop-opacity:1" />
    </linearGradient>
  </defs>
  
  <rect x="20" y="35" width="60" height="55" fill="url(#hotelGradient)" rx="2"/>
  
  <!-- Windows (3x4 grid) -->
  <rect x="28" y="42" width="8" height="8" fill="#60a5fa" opacity="0.8"/>
  <rect x="46" y="42" width="8" height="8" fill="#60a5fa" opacity="0.8"/>
  <rect x="64" y="42" width="8" height="8" fill="#60a5fa" opacity="0.8"/>
  
  <rect x="28" y="55" width="8" height="8" fill="#60a5fa" opacity="0.8"/>
  <rect x="46" y="55" width="8" height="8" fill="#60a5fa" opacity="0.8"/>
  <rect x="64" y="55" width="8" height="8" fill="#60a5fa" opacity="0.8"/>
  
  <rect x="28" y="68" width="8" height="8" fill="#60a5fa" opacity="0.8"/>
  <rect x="46" y="68" width="8" height="8" fill="#60a5fa" opacity="0.8"/>
  <rect x="64" y="68" width="8" height="8" fill="#60a5fa" opacity="0.8"/>
  
  <rect x="28" y="81" width="8" height="8" fill="#60a5fa" opacity="0.8"/>
  <rect x="46" y="81" width="8" height="8" fill="#60a5fa" opacity="0.8"/>
  <rect x="64" y="81" width="8" height="8" fill="#60a5fa" opacity="0.8"/>
  
  <rect x="42" y="78" width="16" height="12" fill="#1e3a8a"/>
  
  <rect x="15" y="25" width="70" height="8" fill="#1e40af" rx="1"/>
  <text x="50" y="31" font-family="Arial, sans-serif" font-size="8" font-weight="bold" fill="white" text-anchor="middle">HOTEL</text>
  
  <path d="M50,12 L52,17 L57.5,17 L53,20.5 L54.5,26 L50,22.5 L45.5,26 L47,20.5 L42.5,17 L48,17 Z" fill="#fbbf24"/>
</svg>
